<?xml version="1.0" standalone="no"?>
<!DOCTYPE svg PUBLIC "-//W3C//DTD SVG 1.1//EN" "http://www.w3.org/Graphics/SVG/1.1/DTD/svg11.dtd" >
<svg xmlns="http://www.w3.org/2000/svg" xmlns:xlink="http://www.w3.org/1999/xlink" version="1.1">
<metadata>
Created by FontForge 20170731 at Thu Sep  8 04:43:54 2016
 By Aleksey,,,
Copyright 2016 Adobe Systems Incorporated. All rights reserved.
</metadata>
<defs>
<font id="KelyRose" horiz-adv-x="318" >
  <font-face 
    font-family="Kely Rose"
    font-weight="400"
    font-stretch="normal"
    units-per-em="1000"
    panose-1="0 0 0 0 0 0 0 0 0 0"
    ascent="750"
    descent="-250"
    x-height="455.5"
    cap-height="711"
    bbox="-2.31429 -24.0411 1057.67 752"
    underline-thickness="50"
    underline-position="-200"
    unicode-range="U+0020-2022"
  />
<missing-glyph horiz-adv-x="100" 
 />
    <glyph glyph-name=".notdef" horiz-adv-x="100" 
 />
    <glyph glyph-name=".null" horiz-adv-x="0" 
 />
    <glyph glyph-name="nonmarkingreturn" horiz-adv-x="333" 
 />
    <glyph glyph-name="space" unicode=" " horiz-adv-x="100" 
 />
    <glyph glyph-name="exclam" unicode="!" horiz-adv-x="208" 
d="M50 309q11 -4 16 -15q6 -16 0 -33q-13 -27 -38 -27q-5 0 -7 3q-7 0 -18 13q-5 17 1 34q13 26 36 26q7 0 10 -1zM203 622q15 -35 -17 -95q-57 -95 -105 -203q-6 -9 -14.5 -7.5t-15.5 7.5l-7 7q-11 22 3 59q17 47 54 118.5t68 115.5q3 11 16 11q12 0 18 -13z" />
    <glyph glyph-name="quotedbl" unicode="&#x22;" horiz-adv-x="248" 
d="M44 604h-6q-10 6 -11 9q-3 7 0 18q8 21 30 57.5t37 54.5q8 9 19 9q12 0 16 -13q9 -17 -6 -45q-8 -9 -28.5 -39t-28.5 -39q-9 -12 -22 -12zM134 604h-6q-10 6 -11 9q-3 7 0 18q8 21 30 57.5t37 54.5q8 9 19 9q12 0 16 -13q9 -17 -6 -45q-8 -9 -28.5 -39t-28.5 -39
q-9 -12 -22 -12z" />
    <glyph glyph-name="numbersign" unicode="#" horiz-adv-x="400" 
d="M304 466l-6 -12q-10 -17 -30 -53q19 0 49 -2q17 -1 22 -13q3 -13 -7 -23q-26 -26 -86 -26h-13q-26 -48 -44 -88q-7 -13 -19 -13q-11 0 -18 12q-14 22 5 72q3 6 7 16h-29q-2 -4 -38 -79q-6 -13 -18 -13t-19 12q-13 22 4 72l1 2q1 1 1 2l-42 -3q-1 -1 -3 -1q-13 0 -19 11
q-6 9 3 21q14 23 65 30q6 1 22 3q9 21 34 71q-28 -2 -43 -3h-3q-14 0 -19 11q-6 10 3 23q16 19 65 27q11 1 29 3q19 35 55 97q9 14 21 14q15 0 20 -16q10 -25 -19 -88q0 -2 -1 -3q10 1 29 1q34 62 59 96q8 12 20 12q16 0 20 -18q9 -28 -21 -85v-1q-1 0 -1 -2t-1 -2
q34 -2 38 -3q17 -1 22 -14q3 -12 -7 -22q-24 -25 -87 -25h-1zM194 400q10 20 34 66h-26q-5 -10 -16 -31.5t-17 -33.5l-2 -2q18 0 27 1z" />
    <glyph glyph-name="dollar" unicode="$" horiz-adv-x="245" 
d="M52 244q-9 0 -15 9q-15 20 0 59v1q4 8 6 13v1q-22 17 -37 39q-7 9 -4 19t16 13q3 1 10 1q22 0 41 -14q8 -6 11 -9q22 -19 38 -20h2q6 0 10 2q-7 6 -22 14q-20 11 -31 18.5t-23 23.5t-12 34q0 34 25.5 69.5t73.5 55.5q15 5 30 5q15 27 33 55q7 13 18 13q12 0 18 -12
q13 -23 -9 -68l-3 -6l-5 -10q10 -10 15 -23q9 -25 -16 -77l-12 -24v-1q-8 -15 -19 -15q-7 0 -15 6q-34 21 -15 68q2 6 8 18q1 3 3.5 8.5t3.5 7.5q-19 -8 -40.5 -27.5t-22.5 -40.5q-1 -6 10 -14t27 -17q20 -11 24 -14q14 -11 17 -29q2 -25 -21 -48q-20 -23 -60 -23
q-11 0 -17 1q-8 -18 -13 -27q-5 -11 -11 -22q-7 -13 -17 -13z" />
    <glyph glyph-name="percent" unicode="%" horiz-adv-x="347" 
d="M281 475q16 -18 15 -43q-3 -30 -24 -65.5t-48 -43.5q-9 -3 -17 -3q-26 0 -44 24q-25 33 -2 83q-51 -60 -72 -92q-6 -8 -14 -8q-10 0 -14 12q-9 21 12 54q16 25 61 81q-8 -4 -13 -6q-10 -2 -15 -2q-26 0 -45 26q-27 38 8 98q31 52 73 54h3q20 0 32 -19q17 -22 46 -22
q24 0 36 14q11 11 19 11q12 0 14 -15q5 -28 -27 -65q-2 -3 -13 -15.5t-19 -20.5q-5 -6 -17 -20q10 5 23 7h5q20 0 32 -18q1 -2 5 -6zM131 541q22 38 19 58q-18 -5 -37 -37q-21 -34 -15 -54q15 3 33 33zM195 568q-3 -17 -12 -35l27 30q-5 1 -15 5zM231 396q18 33 18 58
q-19 -7 -36 -38q-21 -36 -15 -54q15 0 33 34z" />
    <glyph glyph-name="ampersand" unicode="&#x26;" horiz-adv-x="300" 
d="M296 387l1 -1q0 -15 -3 -19q-6 -6 -14 -6h-3q-22 2 -42 -2q0 -27 -24 -59q-19 -25 -49 -40.5t-60 -15.5q-38 0 -70 27q-42 36 -29 93q7 31 30.5 58.5t55.5 42.5q-16 17 -17 42q-2 42 38 85q35 35 71 46q26 8 43 8q28 0 50 -19q40 -35 16 -84q-17 -37 -23 -54
q-5 -13 -18 -13q-6 0 -12 3q-15 8 -21 24.5t2 46.5q6 18 14 31q1 2 3 6.5t3 6.5q-14 -2 -37 -15t-40 -32q-23 -27 -22 -46q0 -14 24 -14h4h2q41 0 53 -32q4 -11 0 -17q-6 -9 -17 -9q-48 -5 -84 -24q12 0 57 9q36 8 54 9q2 1 6 1q41 0 58 -36v-1zM88 298q16 0 37.5 12.5
t38.5 35.5h-12q-40 0 -55 31q-2 8 -2 10q-35 -28 -35 -60q-2 -27 26 -29h2z" />
    <glyph glyph-name="quotesingle" unicode="'" horiz-adv-x="158" 
d="M44 604h-6q-10 6 -11 9q-3 7 0 18q8 21 30 57.5t37 54.5q8 9 19 9q12 0 16 -13q9 -17 -6 -45q-8 -9 -28.5 -39t-28.5 -39q-9 -12 -22 -12z" />
    <glyph glyph-name="parenleft" unicode="(" horiz-adv-x="196" 
d="M35 241q-5 0 -9 3q-16 8 -21 37q-16 100 24 196q44 106 138 164q5 4 12 4q15 0 16 -16q6 -35 -40 -77q-57 -50 -84.5 -127t-20.5 -167q1 -4 -3 -12q-5 -5 -12 -5z" />
    <glyph glyph-name="parenright" unicode=")" horiz-adv-x="207" 
d="M16 240q-12 0 -15 10t5 18q74 62 107.5 141.5t30.5 145.5q-3 59 26 82q7 4 12 4q14 0 17 -16q23 -102 -19 -206.5t-115 -158.5q-26 -20 -49 -20z" />
    <glyph glyph-name="asterisk" unicode="*" horiz-adv-x="273" 
d="M95 244q-9 0 -17 8q-16 24 -3 56v2q-3 -1 -10.5 -2.5t-11.5 -2.5q-2 -2 -7 -2q-10 0 -17 9q-6 6 -3 17q9 29 42 39q1 1 7 3q1 0 2.5 1t2.5 1q-17 29 -24 39q-5 14 0 22q5 9 17 12h5q30 0 48 -32q7 14 18.5 33t13.5 23q9 10 19 10q3 0 8 -2l5 -3q28 -20 7 -63l-2.5 -5
l-2.5 -5q4 1 14.5 2.5t14.5 2.5h5q14 0 17 -7q7 -7 3 -19q-4 -28 -44 -40q-5 -2 -25 -7q13 -22 20 -29q9 -9 3 -20q-5 -14 -20 -14h-3q-23 0 -43 24h-1q-15 -23 -19 -37q-5 -14 -19 -14z" />
    <glyph glyph-name="plus" unicode="+" horiz-adv-x="274" 
d="M108 300q-9 0 -17 7q-32 26 -17 72q-39 9 -48 48q-3 14 4 23q8 8 19 8h3q20 -1 61 2q6 14 11 21q3 5 7.5 13.5t8.5 15.5t8 13q8 14 21 14q12 0 22 -11q23 -26 11 -65q36 -10 46 -50q0 -15 -5 -21q-5 -8 -18 -8h-3q-16 2 -25 2q-12 0 -34 -2q-22 -36 -33 -63
q-6 -19 -22 -19z" />
    <glyph glyph-name="comma" unicode="," horiz-adv-x="148" 
d="M88 310q15 0 27 -14q14 -22 4 -51q-8 -21 -25.5 -35t-36.5 -14q-10 0 -18 4h-1q-13 8 -12 20q4 14 13 15q-6 14 -1 33q12 42 49 42h1z" />
    <glyph glyph-name="hyphen" unicode="-" horiz-adv-x="268" 
d="M99 319h-5q-57 6 -69 51q0 14 5 23q0 9 18 9h14h60q19 5 51 5q59 0 70 -51q0 -14 -5 -18q-10 -10 -18 -10h-5h-19q-37 0 -55 -4q-7 0 -21 -2.5t-21 -2.5z" />
    <glyph glyph-name="period" unicode="." horiz-adv-x="149" 
d="M96 307q12 -2 24 -20q9 -21 0 -47q-7 -16 -22.5 -28t-30.5 -12q-2 0 -7 0.5t-8 0.5q-18 9 -22 25q-10 23 1 46q8 18 23 28t30 10q9 0 12 -3z" />
    <glyph glyph-name="slash" unicode="/" horiz-adv-x="212" 
d="M25 235q-7 0 -15 8q-19 22 -3 71q15 43 72 151.5t93 162.5q7 11 17 11q11 0 18 -13q15 -33 -19 -93q-115 -206 -147 -286q-5 -12 -16 -12z" />
    <glyph glyph-name="zero" unicode="0" horiz-adv-x="310" 
d="M300 576q14 -48 6 -95.5t-30 -91.5q-33 -69 -76.5 -106.5t-89.5 -37.5q-20 0 -34 5q-34 11 -54 41t-21 71q-1 89 55.5 167t112.5 102q19 9 40 9q27 0 46 -17q31 -13 45 -47zM213 412q25 53 32.5 100.5t-2.5 64.5q-5 10 -9 11h-5q-21 0 -58.5 -31.5t-68.5 -83.5
q-22 -39 -33 -84.5t0 -75.5q7 -16 15 -19q6 -2 9 -2q25 0 59.5 32.5t60.5 87.5z" />
    <glyph glyph-name="one" unicode="1" horiz-adv-x="209" 
d="M28 244q-8 0 -15 7q-21 24 -5 77q21 63 105 219q-12 2 -16 11q-4 11 6 21l17.5 17.5l21 21l17.5 17.5l1 1q7 7 16 7q8 0 16 -7q32 -29 -2 -95q-3 -5 -14 -26t-18 -34q-75 -133 -113 -225q-6 -12 -17 -12z" />
    <glyph glyph-name="two" unicode="2" horiz-adv-x="333" 
d="M45 245q-14 0 -24 11q-11 11 -17 28q-9 23 14 39q99 59 175 133t83 118q2 11 -4 17q-3 4 -8 4q-11 0 -30 -18.5t-38 -46.5q-16 -24 -31.5 -35t-38.5 -10q-10 0 -16 8q-4 7 -1 17q12 30 38.5 67.5t60.5 54.5q20 11 43 11q34 0 57 -23q44 -45 8 -117q-21 -42 -81 -99
q-36 -36 -90 -73q4 1 13 1h3q48 0 62 -36q3 -12 -2 -19t-16 -7h-4q-62 0 -138 -22q-11 -3 -18 -3z" />
    <glyph glyph-name="three" unicode="3" 
d="M103 245q-36 0 -61 17q-21 14 -32 35t-9.5 38.5t6.5 32.5q8 20 24.5 33t35.5 13q11 0 16 -9t-1 -18q-19 -30 -21.5 -55.5t8.5 -30.5q7 -4 17 -4q40 0 77 47q35 44 32 68l-2 4q-5 3 -10 3q-4 0 -16 -2q-21 -3 -23 -3q-28 0 -46 22q-7 9 -4 17q3 11 15 14q47 14 94.5 44.5
t56.5 64.5q4 10 -1 16q-6 4 -8 4q-21 0 -59 -49q-31 -38 -64 -38q-8 0 -12 1q-12 2 -15 10q-5 8 1 18q14 28 40.5 56.5t50.5 39.5q19 10 43 10q36 0 58 -22q49 -51 -3 -119q-19 -28 -59 -51q1 -1 4 -3q27 -23 21.5 -63t-41.5 -84q-46 -57 -113 -57z" />
    <glyph glyph-name="four" unicode="4" horiz-adv-x="313" 
d="M306 605q7 -15 6 -23.5t-11 -23.5q-36 -54 -77 -130q12 -11 17 -26v-1q3 -10 -3 -16q-6 -7 -18 -6q-6 2 -22 2q-43 -80 -58 -121q-5 -13 -17 -13q-9 0 -15 8q-20 31 -5 76q3 7 18 43q-38 -6 -62 -12h-1q-8 -2 -10 -2q-13 0 -22 11q-11 16 -13 20l-2 4q-1 2 -7 11
q-9 19 4 33q37 42 109 101.5t132 98.5q12 6 19 6q14 0 21 -12l6 -9l1 1l-1 -1q2 -3 6 -10t5 -9zM155 443q39 71 49 88q-77 -56 -121 -98q32 6 72 10z" />
    <glyph glyph-name="five" unicode="5" horiz-adv-x="349" 
d="M96 245q-28 0 -51 12q-31 17 -40.5 50.5t2.5 59.5q16 43 59 46h2q9 0 14 -8q5 -10 -1 -19q-27 -42 -19 -75q2 -10 8 -14q5 -3 11 -3q19 0 43 19.5t40 47.5q32 54 22 84q0 5 -4 7q-2 2 -9 2q-30 0 -59 -38v-1q-8 -8 -16 -8t-15 7q-26 31 -3 79q20 42 55 97q-3 4 -7 14
q-3 9 2 17q5 7 17 7q30 -1 93 10q38 6 48 6h2q43 0 57 -40q3 -12 -2 -17q-4 -7 -16 -7q-35 0 -89 -10q-20 -5 -37 -6q-2 -1 -5 -1q-6 -8 -12.5 -18t-14.5 -22.5t-12 -19.5h6q33 0 54 -16q16 -12 26 -29t6.5 -53.5t-30.5 -80.5q-23 -37 -56 -58t-69 -21z" />
    <glyph glyph-name="six" unicode="6" horiz-adv-x="291" 
d="M264 631q28 -18 26 -55q-1 -49 -26 -98q-6 -12 -17 -12q-5 0 -13 5q-34 23 -13 81q10 26 12 38q-19 -5 -48 -29.5t-57 -64.5q10 2 14 2q24 0 46 -14q35 -21 41 -63q7 -42 -24 -100q-42 -76 -106 -76q-26 0 -51 14q-45 26 -47 94q-1 64 42 142q64 113 153 144q12 4 27 4
q23 0 41 -12zM153 447q-21 0 -47.5 -21.5t-37.5 -65.5q-6 -19 -4.5 -32.5t5 -20.5t6.5 -9q4 -2 8 -2q14 0 33 17t33 45q27 54 18 80q-2 6 -7 8q-2 1 -7 1z" />
    <glyph glyph-name="seven" unicode="7" horiz-adv-x="288" 
d="M22 243q-9 0 -15 10q-17 28 9 80q23 43 77 112t104 120q-37 -7 -41 -8q-2 0 -7 -0.5t-8 -0.5q-48 0 -61 41q-2 9 2 16q5 7 16 7q27 0 91 11q5 1 19 3t20 3h2q3 1 10 1q15 0 27 -15q1 -3 4 -8.5t5 -8.5h2l-1 -1q6 -16 9 -22q6 -21 -15 -40q-52 -50 -122.5 -136.5
t-110.5 -153.5q-6 -10 -16 -10z" />
    <glyph glyph-name="eight" unicode="8" horiz-adv-x="332" 
d="M322 581q10 -7 10 -16q0 -11 -11 -16q-71 -39 -133 -83q2 -4 3 -5q3 -5 8 -15.5t7 -15.5q40 -89 -19 -148q-36 -36 -94 -36q-27 0 -46 9q-34 17 -43 48q-12 39 13 85q24 44 86 96q-14 34 -11 57q4 32 25 57t55 38q21 10 47 10q36 0 56 -22q15 -16 16 -37q19 1 31 -6z
M128 315q16 17 20.5 31t-3.5 47q-2 5 -6.5 15.5t-5.5 13.5q-50 -45 -64 -78q-17 -38 1 -47q6 -3 14 -3q25 0 44 21zM163 527q41 27 68 39q0 20 -8 30q-4 4 -10 4q-2 0 -4 -1q-17 -3 -32 -22t-15 -37q0 -8 1 -13z" />
    <glyph glyph-name="nine" unicode="9" horiz-adv-x="299" 
d="M252 632q14 -7 24.5 -20.5t19 -40t-2.5 -75t-42 -111.5q-69 -139 -160 -140h-2q-34 0 -60 18t-28 57q-1 43 29 61q17 11 27 -1q5 -6 3 -15q-14 -62 12 -72q3 -1 8 -1q18 0 43 22t51 68q-30 -6 -61 8q-31 16 -41 49q-17 47 19 114q48 90 118 90q21 0 43 -11zM220 497
q11 29 14 52t0.5 33t-6.5 12h-3q-13 0 -35.5 -20t-39.5 -52q-28 -54 -18 -84q1 -6 7 -10q6 -2 9 -2q18 0 38 19t34 52z" />
    <glyph glyph-name="colon" unicode=":" horiz-adv-x="237" 
d="M86 317q10 -3 20 -18q7 -17 0 -40q-6 -14 -19.5 -24t-26.5 -10q-2 0 -5.5 0.5t-6.5 0.5q-15 7 -19 21q-8 20 1 40q16 32 45 32q8 0 11 -2zM190 511q32 -14 17 -56q-14 -34 -45 -34q-3 0 -11 2q-15 4 -20 18q-9 21 2 42q6 14 18.5 23t25.5 9q5 0 13 -4z" />
    <glyph glyph-name="semicolon" unicode=";" horiz-adv-x="252" 
d="M88 310q15 0 27 -14q14 -22 4 -51q-8 -21 -25.5 -35t-36.5 -14q-10 0 -18 4h-1q-13 8 -12 20q4 14 13 15q-6 14 -1 33q12 42 49 42h1zM203 508q15 -6 20.5 -23t-1.5 -36q-15 -34 -45 -34q-2 0 -6 1t-5 1q-14 6 -22 21q-8 17 2 40q16 33 45 33z" />
    <glyph glyph-name="less" unicode="&#x3c;" horiz-adv-x="270" 
d="M175 244q-9 0 -19 7q-12 9 -96 55q-11 5 -18 14.5t-9.5 17.5t-5.5 25q-6 32 26 43q31 10 79 32t70 37q9 6 18 6q10 0 17.5 -7.5t7.5 -21.5q0 -40 -38 -69q-17 -14 -52 -30q2 -2 8.5 -7.5t10.5 -8.5q33 -29 27 -67v-2q-4 -24 -26 -24z" />
    <glyph glyph-name="equal" unicode="=" horiz-adv-x="266" 
d="M173 399q58 0 67 -48q2 -12 -4 -22q-5 -7 -17 -7h-4h-21q-20 0 -54 -4q-28 -4 -41 -4h-6q-54 4 -67 50q0 16 4 21q10 10 17 10q1 0 2 -1t2 -1h14q19 0 57 4q18 2 51 2zM93 412q-54 2 -67 51q0 16 4 21q7 7 17 7h4h14q19 0 57 4q9 0 26 1t25 1q58 0 67 -50q3 -11 -4 -21
q-8 -8 -17 -8h-4q-6 2 -21 2q-20 0 -54 -4q-28 -4 -41 -4h-6z" />
    <glyph glyph-name="greater" unicode="&#x3e;" horiz-adv-x="278" 
d="M50 243q-22 0 -24 28q-1 16 10.5 36.5t29.5 33.5q13 10 47 25q-3 2 -21 16q-34 33 -28 72q3 27 27 27q7 0 18 -7q53 -37 121 -67q17 -8 21 -20q5 -14 -4 -32q-18 -39 -47 -52q-3 -1 -9.5 -4t-10.5 -4q-64 -22 -112 -48q-16 -4 -18 -4z" />
    <glyph glyph-name="question" unicode="?" horiz-adv-x="254" 
d="M49 312q12 -5 16 -15q7 -15 -1 -33q-12 -27 -36 -27q-3 0 -9 2q-11 3 -16 15q-7 16 1 33q11 26 36 26q6 0 9 -1zM220 626q27 -17 32.5 -49.5t-11.5 -68.5q-25 -51 -103 -94q-43 -24 -55 -69q-2 -11 -13 -13q0 -1 -4.5 2t-10.5 7.5t-9 7.5q-11 22 1 51q15 35 72 68
q49 27 71 75q19 40 6 48q-2 1 -6 1q-17 0 -41 -27.5t-41 -61.5v-1q-8 -12 -16 -12q-6 0 -15 9v1q-21 31 8 79q37 60 94 60q24 0 41 -13z" />
    <glyph glyph-name="at" unicode="@" horiz-adv-x="372" 
d="M305 619q53 -25 64 -87.5t-14 -115.5q-19 -49 -50.5 -77t-65.5 -28h-5h-1q0 -32 -32 -52q-25 -14 -60 -14q-33 0 -55 9q-83 32 -85 130q-2 92 70 173q64 71 131 85q66 14 103 -23zM197 436q23 41 28 67q-32 -16 -64 -69q-27 -43 -24 -67q21 4 60 69zM224 564q23 0 36 -16
q2 2 3 4h1q9 11 19 11q7 0 12 -5q-8 16 -21 21q-10 5 -23 5q-30 0 -69 -23t-73 -71q-26 -36 -36.5 -76.5t-1.5 -71.5q6 -28 27 -38q10 -5 27 -5q42 0 71 27q-8 8 -11 13q-29 -23 -56 -23q-35 0 -51 30q-13 25 -7 59t29 67q65 92 124 92zM288 432q11 25 16 55l-3 -6
q-4 -9 -23 -41q-22 -37 -27 -50q-7 -16 -9 -26q22 13 46 68z" />
    <glyph glyph-name="A" unicode="A" horiz-adv-x="582" 
d="M545 439q11 -4 14.5 -5.5t11.5 -6t10 -8t0 -8.5q-1 -3 -21 -3t-70 0.5t-89 0.5q-39 -70 -76 -150t-54 -125l-17 -45q-3 1 -6.5 2.5t-14.5 8t-16.5 16t-11 26.5t1.5 40q6 37 123 225q-62 -3 -139 -11q-83 -112 -140 -250q-5 -12 -25 12q-32 39 -25 76q1 7 5 14
q21 40 84 130q-36 -8 -76 -20q-6 -2 -7 8q-2 27 20 59q19 26 42 30q37 6 85 9q161 200 271 228q43 10 71 7t43 -15t22 -25.5t9 -24.5l1 -10l-36 -19q-55 -62 -105 -147q94 -9 115 -19zM366 463q81 123 117 163q-2 0 -6.5 1t-6.5 1q-8 1 -37 -13t-81.5 -53.5t-101.5 -94.5
q44 0 116 -4z" />
    <glyph glyph-name="B" unicode="B" horiz-adv-x="619" 
d="M601 682q22 -21 17 -48.5t-25 -56t-56 -59t-74.5 -57t-81.5 -49.5q29 -3 52 -11t43 -26t19 -54t-27 -85q-2 -2 -4 -6q22 -10 41 -31q13 -13 17 -29q1 -4 -6 -2q-1 0 -2 1q-21 24 -72 32q-36 -43 -81 -85t-109.5 -80.5t-116.5 -39.5q-29 1 -41 25.5t-7 41.5q0 4 2 10.5
t12 26.5t25 38t46.5 40.5t72.5 39.5q80 31 139 30q2 3 7 8q30 33 24 73q-7 43 -55 40q-50 -2 -129 -58q-12 1 -31 26q-54 -92 -81 -173q-4 -13 -25 12q-32 39 -27 77q1 9 5 16q57 107 158 226.5t145 152.5q-5 29 -96 -1q-75 -25 -127 -60.5t-75 -68.5t-34 -62t-13.5 -49
t-4.5 -21q-15 -10 -22 22q-11 51 9 105l4 10q73 166 260 212q45 10 74 7t45 -15.5t23 -26t8 -24.5l2 -11q0 -1 -3 -7q118 68 176 24zM169 92q98 37 170 109q-59 -10 -105.5 -37.5t-64.5 -71.5zM259 417q11 -11 87.5 42t142 116t51.5 75q-18 19 -92.5 -36t-137.5 -122
t-51 -75z" />
    <glyph glyph-name="C" unicode="C" horiz-adv-x="502" 
d="M227 464q13 4 34 12.5t68 35.5t73 56q28 32 29 63q0 35 -48 14q-160 -71 -239 -209q-55 -97 -43 -170q8 -47 43 -50q36 -1 77.5 22.5t76 57t63.5 67.5t45 58l17 24l23 1q9 -4 8 -11q-14 -42 -53.5 -97t-89.5 -103.5t-104.5 -86t-98.5 -45.5t-72 20q-32 37 -34.5 97
t19.5 125t65 131t95.5 118.5t117 85.5t125.5 33q49 0 67 -32.5t7 -73t-37 -72.5q-20 -23 -48.5 -46.5t-63.5 -43t-68.5 -16.5t-53.5 35z" />
    <glyph glyph-name="D" unicode="D" horiz-adv-x="624" 
d="M589 679q31 -36 33.5 -94.5t-19 -121.5t-63 -127t-92.5 -115t-114 -83t-122 -32q-44 0 -61.5 26.5t-10.5 65.5q-16 -36 -23 -60q-4 -12 -25 12q-33 39 -26 76q2 8 5 14q66 124 191 263q46 57 103 106q-4 26 -93 -2q-73 -24 -124 -58t-72.5 -66.5t-32.5 -60.5t-13.5 -47.5
t-4.5 -20.5q-14 -9 -21 20q-11 49 8 102l4 10q71 162 252 207q68 17 101.5 -0.5t42.5 -46.5q37 27 70 41t61.5 13t45.5 -21zM253 172q156 69 232 204q53 95 41 165q-8 45 -42 48q-93 2 -213 -163q-14 -20 -44 -66v0q-27 -43 -43 -74q25 27 68.5 50t85.5 29.5t66 -18.5
q-13 -4 -33.5 -12t-66 -34t-70.5 -54q-28 -32 -27 -63q0 -32 46 -12z" />
    <glyph glyph-name="E" unicode="E" horiz-adv-x="806" 
d="M801 624q-131 45 -320 39q-7 -10 -28 -37t-44.5 -57.5t-44.5 -60.5q116 -4 165 -27q2 -1 8 -3.5t8.5 -3.5t7.5 -3.5t6.5 -3.5t5 -4t2 -5t-0.5 -5q-13 -5 -33.5 -3.5t-87 0t-129.5 -9.5q-65 -96 -112 -194q124 -4 237.5 -19t127.5 -36q7 -11 8 -24t-1 -21l-3 -8
q-156 53 -402 34q-6 -15 -11 -30q-7 -14 -38 25l-120 -18q-1 3 -1.5 7.5t0.5 17.5t6.5 24t20 23.5t36.5 19.5q14 4 40 5q2 8 4 11q38 69 107 165q-39 -9 -85 -24q-6 -2 -7 7q-4 24 19 59q19 28 43 32q43 7 97 11q76 92 141 153q-50 -4 -98 -10t-71 -10l-24 -4q-1 3 -1.5 7.5
t0.5 17t6.5 24t20 24t37.5 19.5q49 15 266 -3t238 -48q7 -11 8 -24t-1 -21z" />
    <glyph glyph-name="F" unicode="F" horiz-adv-x="675" 
d="M670 634q-117 40 -293 36q-2 -3 -45 -58.5t-73 -97.5q112 -4 164 -27q3 -1 10.5 -4.5t11 -5.5t8 -5t6 -6t0.5 -7q-13 -5 -33 -3t-86 0.5t-128 -9.5q-110 -164 -154 -295q-5 -13 -26 12q-34 40 -31 80q1 12 6 22q42 78 106 163q-35 -8 -84 -23q-6 -2 -7 8q-2 27 21 60
q18 25 40 28q57 8 96 11q80 96 144 154q-47 -3 -93.5 -9t-69.5 -10l-22 -4q-1 3 -1.5 7t0.5 16.5t6 22.5t18.5 22t34.5 18q46 14 248.5 -2t221.5 -44q7 -10 8 -22.5t-2 -19.5z" />
    <glyph glyph-name="G" unicode="G" horiz-adv-x="482" 
d="M443 514q10 0 20 -4.5t15 -9.5l4 -5q-66 -60 -134 -179.5t-104 -209.5l-35 -89q-2 1 -5.5 2t-13 7t-14 14.5t-9.5 23.5t1 35q5 24 58 113q-143 -108 -192 -48q-30 35 -32.5 91t18 117t60.5 123t89.5 111t110 80t117.5 31q46 0 62 -30.5t6 -68.5t-35 -68
q-18 -21 -44.5 -43.5t-59 -40.5t-64 -15.5t-49.5 32.5q12 4 31.5 11.5t63 33t67.5 52.5q28 32 27 61q-1 32 -45 12q-152 -68 -225 -200q-50 -92 -37 -158q9 -40 39 -44q84 -2 203 137q82 123 106 126z" />
    <glyph glyph-name="H" unicode="H" horiz-adv-x="667" 
d="M628 456q3 -2 11.5 -5.5t12 -5.5t8.5 -5t6 -6.5t0 -7.5q-1 -3 -25.5 -3.5t-66.5 0.5t-97 0q-41 -73 -79.5 -157t-56.5 -131l-18 -47q-3 1 -7 2.5t-15.5 8.5t-17 17t-11.5 28t1 42q11 46 130 235q-73 -3 -147 -12q-94 -140 -135 -261q-5 -13 -25 12q-32 38 -28 77
q2 10 6 18q35 66 88 138q-42 -8 -90 -23q-6 -2 -8 8q-2 27 21 61q19 28 44 32q40 7 103 11q92 113 146 156q-13 19 -95 -8q-76 -25 -129 -60.5t-76 -69.5t-34.5 -63t-14 -49.5t-4.5 -21.5q-15 -10 -22 21q-11 52 9 107q2 6 4 11q75 168 264 215q37 11 64 8t43.5 -9t26.5 -20
t13.5 -23t5.5 -19q1 0 1 -1t-1 -3l1 -4l-4 -2q-6 -9 -23.5 -32t-45.5 -60t-53 -71q77 0 133 -4q134 206 167 209q13 1 25 -4.5t17 -11.5l6 -6q-72 -65 -149 -192q100 -9 121 -19z" />
    <glyph glyph-name="I" unicode="I" horiz-adv-x="431" 
d="M430 634q2 -3 -20.5 -32.5t-60.5 -80t-80 -110.5t-83.5 -136.5t-65.5 -145.5q-5 -13 -25 12q-33 39 -28 77q2 9 6 17q57 107 158 227t146 155q-2 29 -96 -2q-75 -25 -128 -60.5t-75.5 -69t-34 -62.5t-14 -49t-4.5 -21q-15 -10 -22 21q-11 50 8 105q3 6 5 11
q71 166 261 214q45 10 74.5 7t45 -15.5t23 -26t8.5 -24.5z" />
    <glyph glyph-name="J" unicode="J" horiz-adv-x="1058" 
d="M1055 688q1 -3 2 -7t0.5 -16.5t-5 -23t-17.5 -22.5t-34 -20q-24 -9 -154 -13q-41 -104 -163 -256t-199 -196q-46 -27 -86 -29.5t-63 21.5q-34 45 -33.5 107t31.5 136q-77 3 -160 -3.5t-128 -14.5l-44 -8q-1 3 -1.5 7.5t0.5 17t6.5 23.5t20 23t36.5 19q24 7 114.5 5.5
t183.5 -11.5v1q1 0 1 -1q176 -16 194 -43q7 -11 8 -24t-1 -20l-3 -8q-65 22 -150 32q0 -3 -1 -5q-19 -59 -11 -100.5t40 -43.5q39 -1 108 65.5t131 151t100 154.5q-244 2 -267 31q-7 10 -8.5 22.5t0.5 20.5l2 7q119 -20 307 -7q4 1 13 1q57 4 114.5 10.5t86.5 11.5z" />
    <glyph glyph-name="K" unicode="K" horiz-adv-x="855" 
d="M854 644q5 -31 -12 -53.5t-51 -29.5q-2 -1 -4.5 4t-7 13.5t-11 18.5t-17.5 18.5t-25 13.5t-36 4.5t-48 -8.5q-178 -58 -277 -138q-3 -15 -16 -33q-42 -55 -60.5 -112t-9.5 -93.5t38 -38.5q32 -1 69 20t67.5 51t57 60t41.5 51l14 22l19 1q10 -2 8 -10
q-16 -47 -65.5 -109.5t-108 -110.5t-114.5 -70t-85 12q-61 71 -7 213q-1 1 -1 5q-73 -116 -105 -208q-4 -12 -22 11q-31 37 -23 72q1 6 4 11q50 95 139.5 200.5t130.5 138.5q-5 25 -86 -2q-67 -22 -113.5 -53.5t-66.5 -61.5t-30 -56t-12.5 -43.5t-4.5 -18.5q-13 -9 -19 19
q-10 48 8 96l3 7q64 148 232 190q40 9 66 6t40 -14t21 -23t8 -22l1 -9q2 -3 -40 -58q69 57 156.5 105.5t169.5 73.5t130.5 1t54.5 -63z" />
    <glyph glyph-name="L" unicode="L" horiz-adv-x="622" 
d="M612 146q8 -12 9 -26t-1 -22l-3 -9q-188 63 -475 32q-2 -2 -8 -1l-132 -19q-1 3 -1.5 8t0.5 19t6.5 26t21.5 25t41 21q5 2 18 4q0 18 6 29q59 112 163.5 236t153.5 162q-5 29 -100 -2q-66 -22 -116 -52t-75.5 -58.5t-42 -58t-21 -51t-7.5 -37t-5 -16.5q-16 -11 -23 23
q-11 52 9 109q2 6 4 11q77 173 273 223q47 11 77.5 7.5t47 -16.5t24 -27t8.5 -26l2 -11q3 -4 -45 -64.5t-123 -170t-121 -207.5q132 -2 275 -19.5t160 -41.5z" />
    <glyph glyph-name="M" unicode="M" horiz-adv-x="875" 
d="M842 194q11 11 21.5 11.5t11.5 -12.5q-2 -55 -36 -105t-82 -76.5t-102 -34t-96 21.5q-62 40 -75.5 141t19.5 210q-34 -65 -65.5 -136t-45.5 -109l-15 -38q-1 0 -3.5 1t-9.5 4t-12 7.5t-12.5 12.5t-10 18t-5 24.5t2.5 31.5q2 11 10 66.5t17.5 152t10.5 171.5
q-192 -253 -253 -429q-5 -13 -26 12q-33 40 -29 80q2 10 6 18q54 102 146.5 214.5t154.5 169.5v4q-24 3 -80 -15t-99.5 -42t-69 -48t-43.5 -49t-26 -46.5t-12 -38.5t-5.5 -28t-3.5 -12q-15 -10 -22 22q-11 51 9 105q2 6 4 11q74 169 264 216q97 24 135 -22q34 -23 37 -53
q7 -105 -13 -253q72 117 137 206t86 91q16 2 35.5 -27t6.5 -55q-3 -7 -68 -104q-33 -53 -51.5 -115t-20 -117t7.5 -101.5t29 -75.5t46 -33q23 0 51.5 16t53 38.5t45.5 44.5t33 38z" />
    <glyph glyph-name="N" unicode="N" horiz-adv-x="712" 
d="M663 662q13 1 25 -4.5t18 -11.5l6 -6q-81 -73 -164.5 -218.5t-126.5 -253.5l-43 -109q-1 0 -3.5 1t-9.5 4t-12 7.5t-12.5 12.5t-10 18t-5 24.5t2.5 31.5q2 11 10 66.5t17.5 152t10.5 171.5q-190 -245 -254 -429q-5 -13 -26 13q-34 41 -28 81q1 9 5 17q55 103 148.5 216.5
t153.5 167.5q0 3 -1 4q-24 4 -80 -15q-76 -25 -129.5 -61t-76.5 -70t-34 -63t-14 -49.5t-5 -21.5q-15 -10 -22 22q-11 51 9 107l4 10q74 169 264 216q96 23 136 -22q35 -25 36 -53q7 -106 -13 -254q74 120 138.5 208t85.5 90z" />
    <glyph glyph-name="O" unicode="O" horiz-adv-x="548" 
d="M498 666q4 12 24 -13q32 -39 24 -76q-1 -6 -4 -12q-59 -112 -186 -257q-85 -103 -182.5 -162t-139.5 -10q-30 36 -32.5 92.5t18.5 118t61.5 125t91 113t112 81t119.5 31.5q44 0 61 -26t10 -65q16 40 23 60zM137 224q91 -2 209 159q36 54 43 65v0q20 33 43 73
q-25 -26 -67.5 -49t-83.5 -29.5t-64 17.5q12 4 32 12t65 33.5t69 53.5q27 32 26 61q0 32 -45 12q-154 -68 -228 -201q-52 -93 -40 -161q8 -43 41 -46z" />
    <glyph glyph-name="P" unicode="P" horiz-adv-x="618" 
d="M600 666q28 -33 10 -74t-68.5 -85t-110.5 -81t-115.5 -62t-82.5 -27q-14 1 -17 13q-67 -111 -97 -201q-4 -13 -25 12q-32 39 -27 77l5 16q56 106 156.5 225t145.5 154q-5 28 -95 -2q-75 -25 -127 -60t-75 -68t-34 -62t-13.5 -49t-4.5 -21q-15 -10 -22 21q-11 50 9 104
q2 6 4 11q72 165 259 212q45 10 74 7t45 -15t23 -25.5t9 -24.5l1 -11q2 -2 -3 -8q120 67 176 24zM259 401q11 -11 87 42.5t141.5 116t51.5 74.5q-18 20 -92.5 -35.5t-137 -122.5t-50.5 -75z" />
    <glyph glyph-name="Q" unicode="Q" horiz-adv-x="477" 
d="M445 312q30 16 31 -2q-3 -52 -36 -119t-77.5 -119t-97.5 -77.5t-90 -0.5q-64 41 -72 154q-46 -10 -69 19q-31 36 -33.5 93t19 119t62 125t91 113t112 81.5t119.5 31.5q38 0 56.5 -21.5t17 -50.5t-15.5 -60q16 -45 -21 -125.5t-108.5 -161t-148.5 -128.5q7 -39 24.5 -59.5
t41.5 -15.5q32 8 64.5 32.5t55 52.5t40 55.5t26.5 45.5zM111 268q24 127 96 234.5t168 135.5q18 6 34 4q4 20 -5.5 27t-38.5 -4q-70 -31 -125 -77t-85.5 -93.5t-46.5 -93.5t-14.5 -81t17.5 -52zM269 474q-72 -98 -86 -209q25 10 54 35.5t62.5 68.5t48.5 63t45 64
q15 21 12.5 32.5t-10.5 16.5t-17 4q-59 -5 -109 -75z" />
    <glyph glyph-name="R" unicode="R" horiz-adv-x="647" 
d="M615 455l23 1q9 -4 8 -11q-24 -71 -108 -162t-177 -139t-133 -1q-55 63 -25 184q-54 -92 -84 -177q-4 -13 -24 11q-32 38 -28 76l6 18q57 107 157 226t145 153q-5 30 -96 -2q-75 -25 -127 -60t-75 -68t-34 -62t-13.5 -49t-4.5 -21q-15 -10 -22 22q-11 51 9 105l4 10
q73 166 260 212q45 10 74 7t45 -15.5t23 -26t8 -24.5l2 -11q1 -1 -3 -7q120 67 176 24q29 -34 8.5 -77.5t-76 -90t-118.5 -84t-118 -59.5q-11 -50 0 -84.5t39 -36.5q36 -1 77.5 21.5t76 54.5t63.5 64.5t45 55.5zM259 403q11 -11 87.5 42t142 116t51.5 75q-18 19 -92.5 -36
t-137.5 -122t-51 -75z" />
    <glyph glyph-name="S" unicode="S" horiz-adv-x="547" 
d="M486 704q32 -7 47 -26t14 -42t-13 -48q-16 -35 -73 -49q-40 -10 -47 3q-6 9 18 26q34 25 42 55q7 27 -25 26q-8 0 -18 -2q-112 -21 -200 -81q-25 -17 -36 -31.5t-7.5 -25.5t14 -19.5t30 -14t37.5 -9t40 -6.5q2 0 6.5 -1t6.5 -1q113 -12 149.5 -69.5t-34.5 -146.5
q-1 -1 -3 -2.5t-3 -2.5q21 -18 35 -42q10 -17 10 -34q0 -4 -8 1q-16 29 -66 50q-80 -60 -183 -107t-179 -31q-21 5 -31 22.5t-8 32.5t5 25q1 4 4.5 10.5t18.5 24t35 32.5t57.5 30.5t83.5 23.5q88 13 147 -1q1 1 5 3l6 3q29 22 29 48q0 14 -44.5 28t-96 26.5t-62.5 20.5
q-33 21 -52 48.5t-19 64t27 72.5q61 69 160 102t181 14zM98 165q96 15 192 71q-137 7 -192 -71z" />
    <glyph glyph-name="T" unicode="T" horiz-adv-x="611" 
d="M608 705q1 -3 2 -7.5t0.5 -17.5t-5 -25t-19 -25.5t-37.5 -21.5q-34 -13 -209 -15q-156 -320 -182 -524q-2 -14 -30 7q-40 31 -46 72q-3 14 1 26q29 101 87 217t113 202q-247 4 -271 34q-8 11 -10 24.5t0 22.5l2 8q132 -21 341 -8q27 25 37 15q3 -1 -2 -12q57 5 114 12
t86 11z" />
    <glyph glyph-name="U" unicode="U" horiz-adv-x="687" 
d="M639 684q13 1 25 -4.5t18 -11.5l5 -6q-57 -65 -112 -148.5t-93.5 -156.5t-68.5 -137t-45 -102l-15 -37q-1 0 -3.5 1t-9.5 4t-12 7.5t-12.5 12.5t-10 18t-5 24.5t2.5 31.5q2 8 7 18q-48 -34 -103 -50t-95 -12q-23 3 -34 24t-9.5 43t5.5 38q10 30 27.5 65t37 67t42.5 65.5
t43.5 61.5t41.5 54t35.5 43t24.5 29l11 13q-17 -3 -53 -14q-76 -25 -129.5 -61t-76.5 -70t-34 -63t-14 -49.5t-5 -21.5q-15 -10 -22 22q-11 51 9 107l4 10q74 169 264 216q70 17 109 -2q8 0 33.5 -48t9.5 -62q-150 -131 -247 -328q-9 -26 -1 -42.5t28 -18.5q29 -1 57.5 13.5
t54.5 43t43.5 51.5t41.5 58.5t30 44.5q67 106 123.5 181.5t76.5 77.5z" />
    <glyph glyph-name="V" unicode="V" horiz-adv-x="648" 
d="M604 671q12 1 23 -3.5t16 -9.5l5 -6q-46 -42 -94.5 -112.5t-84.5 -140t-65.5 -133.5t-44.5 -104l-15 -40q-2 1 -6 2.5t-14.5 7.5t-15.5 15.5t-10.5 26t1.5 38.5q3 16 11.5 78t17 167t4.5 174q-24 4 -73 -13q-59 -20 -103 -46.5t-66.5 -51.5t-37 -51t-18.5 -45t-6.5 -33
t-4.5 -15q-14 -9 -20 20q-10 47 8 98l3 9q69 153 241 197q89 21 124 -20q32 -22 33 -49q5 -98 -12 -231q66 108 125.5 189t78.5 82z" />
    <glyph glyph-name="W" unicode="W" horiz-adv-x="828" 
d="M784 671q12 1 23 -4t16 -11l5 -5q-74 -67 -149.5 -199t-114.5 -230l-39 -99q-2 1 -6 2.5t-14.5 7.5t-16 15.5t-10.5 25.5t1 38q5 20 36 76q11 113 10 210q-47 -75 -92.5 -168.5t-67.5 -149.5l-22 -57q-2 1 -6 2.5t-14.5 7.5t-15.5 15.5t-10.5 25.5t1.5 38q3 17 12 78
t17 166.5t4 174.5q-25 2 -73 -14q-69 -23 -117.5 -55.5t-69.5 -63.5t-31 -57.5t-12.5 -45t-4.5 -19.5q-14 -9 -20 20q-10 47 8 98q1 4 3 8q69 153 241 197q88 21 123 -20q32 -22 33 -49q6 -92 -12 -230q69 111 122 183q-5 59 -16 108q-2 12 24 3q34 -11 53 -37q14 13 21 14
q12 1 23 -4t16 -11l5 -5q-29 -28 -53 -57q1 -81 -13 -194q65 106 124 187.5t79 83.5z" />
    <glyph glyph-name="X" unicode="X" horiz-adv-x="433" 
d="M306 460q46 -125 62 -215q7 -38 -38 -75q-28 -23 -37 -16q-1 2 -1 4q-3 104 -35 231q-95 -141 -137 -263q-4 -13 -25 12q-33 39 -27 77q1 9 5 17q54 101 163 233q-16 54 -37 114q-51 -26 -86.5 -58t-50.5 -60.5t-22.5 -53t-10 -40.5t-4.5 -17q-15 -10 -22 22
q-11 51 9 105q2 6 4 11q50 114 154 172q-28 72 -23 75q5 1 7 2t7.5 -3.5t8.5 -7t8.5 -8.5t8.5 -9q6 -6 20 -31q31 15 71 24q45 10 74.5 7t45.5 -15.5t23.5 -26t8.5 -24.5l2 -11q2 -3 -13.5 -23t-50 -65t-62.5 -84zM282 518q67 75 96 97q-2 29 -96 -2q-18 -6 -36 -13
q16 -32 36 -82z" />
    <glyph glyph-name="Y" unicode="Y" horiz-adv-x="648" 
d="M596 635q3 9 14.5 9t24.5 -7t13 -14q-3 -53 -69 -157t-149 -197t-137 -124q-44 -25 -82.5 -28t-59.5 20q-64 76 -3 226q-46 1 -82.5 -4t-49.5 -11l-13 -5q-1 3 -2 9t0 20.5t6 25.5t19 20.5t36 10.5q188 8 216 -32q7 -10 8 -22.5t-2 -20.5l-2 -7q-15 3 -61 10
q-18 -55 -10 -94.5t38 -41.5q45 -1 128.5 88.5t153.5 198.5q-172 -186 -191 -186q-29 0 -37 28q-26 93 142 273q-67 -1 -119 -16t-80 -36.5t-45 -42.5t-25 -36.5t-10 -15.5q-11 -3 -12 12q-4 32 25 81q10 15 20 26q112 120 284 104q33 -3 59 -13q10 0 18.5 -5t11.5 -9l3 -5
q-13 -14 -33 -36.5t-61 -71t-62.5 -83t-9.5 -39.5q39 25 96 82.5t80 84.5q10 21 11 31z" />
    <glyph glyph-name="Z" unicode="Z" horiz-adv-x="706" 
d="M657 310q34 -11 45 -62q8 -34 -3 -37q-1 -1 -3 0q-200 82 -384 84q-89 -104 -136 -131q-46 -26 -84 -28.5t-61 21.5q-29 33 -31 67v10v0v1q0 14 6 26q17 36 67 66q67 41 218 37q59 68 113.5 149t74.5 128q-8 -1 -18 -1q-73 1 -129.5 -14t-86.5 -37t-48.5 -44.5t-27 -39
t-10.5 -16.5q-11 -3 -13 12q-3 33 27 83q10 16 20 27q113 123 292 107q39 -3 67 -16q27 -16 -32 -118.5t-154 -223.5q86 -7 169 -22t122 -28zM132 243q32 -1 87 47q-74 -9 -118 -28q11 -18 31 -19z" />
    <glyph glyph-name="bracketleft" unicode="[" horiz-adv-x="274" 
d="M37 233q-8 0 -18 10q-9 9 -14 18q-8 14 -1 35q23 64 70.5 159t92.5 155q10 13 24 18q14 4 38 6h4q15 0 24 -8q9 -9 13 -15q6 -7 2 -16q-5 -10 -15 -10q-21 -2 -46 -8q-86 -130 -151 -283h8q22 0 35 -22q6 -10 1 -17q-3 -8 -14 -9q-24 -2 -42 -10q-6 -3 -11 -3z" />
    <glyph glyph-name="backslash" unicode="\" horiz-adv-x="212" 
d="M171 246q-32 80 -147 286q-34 60 -19 93q7 13 18 13q10 0 17 -11q36 -54 93 -162.5t72 -151.5q16 -49 -3 -71q-8 -8 -15 -8q-11 0 -16 12z" />
    <glyph glyph-name="bracketright" unicode="]" horiz-adv-x="283" 
d="M42 234q-10 0 -19 6l-1 1q-15 12 -16 13q-7 7 -5 16q3 9 13 13q25 6 49 10q71 161 148 284q-1 -1 -3 -1q-16 0 -35 23q-7 11 -2 18q3 9 15 10q3 0 9 1.5l10 2.5q35 5 41 5q14 0 23 -12q1 -2 7 -13l3 -6q7 -16 -1 -28q-90 -136 -171 -317q-9 -17 -25 -19l-15 -3
q-10 -2 -13 -2q-10 -2 -12 -2z" />
    <glyph glyph-name="asciicircum" unicode="^" horiz-adv-x="159" 
d="M45 616q-5 0 -10 5q-20 17 -2 46q19 31 50 67q5 6 12 6q5 0 11 -4q12 -8 15 -28q5 -42 12 -69q2 -7 -1 -13q0 -1 -11 -6h-1h-2q-25 0 -32 27q-1 3 -3 11q-20 -24 -25 -33q-9 -9 -13 -9z" />
    <glyph glyph-name="underscore" unicode="_" horiz-adv-x="381" 
d="M296 245h-250q-11 0 -17 7q-5 9 -2 17q5 14 21 23.5t38 9.5h249q12 0 17 -9q6 -7 2 -17q-14 -31 -58 -31z" />
    <glyph glyph-name="grave" unicode="`" horiz-adv-x="154" 
d="M102 644q-5 0 -17 4q-4 1 -10 4.5t-15 8.5t-14 8q-1 1 -13 8q-8 5 -8 13t9 13q10 5 22 5t22 -6q16 -7 44 -30q8 -7 6 -14q0 -7 -9 -11q-15 -3 -17 -3z" />
    <glyph glyph-name="a" unicode="a" horiz-adv-x="285" 
d="M275 417q9 -7 9 -18t-4 -19l-5 -7q-98 -104 -111 -114q-17 -16 -27 -17q-1 -1 -3 -1q-3 0 -7 2q-14 11 -3 53q3 10 13 34q-39 -46 -75.5 -72t-51.5 -13q-22 26 2 81.5t72 101t87 48.5q16 1 21.5 -10.5t2.5 -30.5q33 46 52 46q9 0 17.5 -3.5t12.5 -7.5l4 -4
q-5 -5 -25 -28.5t-45.5 -60.5t-29.5 -56q5 2 49 48.5t45 47.5zM68 307q8 -7 38.5 22t54 63t16.5 39q-11 8 -42 -18t-54 -60t-13 -46z" />
    <glyph glyph-name="b" unicode="b" 
d="M183 478q-26 -24 -41 -40q60 53 80 36q25 -30 -9 -95q0 -7 -8 -21q-13 -21 -16 -36q3 2 25 24.5t45 47.5l23 24q10 -6 10 -17t-5 -19l-5 -8q-87 -96 -110 -114q-17 -15 -28 -18h-2q-4 0 -8 2q-10 7 -7 29q-36 -28 -66 -31q-13 -1 -19 7.5t-6 22.5l-12 -30q-22 0 -23.5 29
t12.5 58q28 70 97 162t125 132q42 30 70 19q20 -9 8 -36q-4 -8 -12.5 -18.5t-23 -24.5t-26.5 -25t-33.5 -30t-34.5 -30zM285 603q-13 -3 -60 -49.5t-50 -56.5q6 6 30 25.5t46 40t36 40.5h-2zM164 412q-8 7 -38.5 -22t-54 -63t-16.5 -40q17 -12 71 47t38 78z" />
    <glyph glyph-name="c" unicode="c" horiz-adv-x="256" 
d="M246 415q10 -6 10 -17t-5 -18l-5 -8q-60 -68 -114 -101q-45 -28 -84 -28q-26 0 -38.5 18t-8.5 38q11 63 76.5 128.5t111.5 46.5q25 -16 11 -59t-35 -46q-6 -1 -11.5 5t-4.5 13q0 1 9 12.5t16.5 23.5t3.5 14q-13 8 -48.5 -21t-61 -66.5t-13.5 -51.5q18 -16 63 5
q7 3 17 9.5t19.5 14.5t20.5 18t20.5 19t19 18.5l16 16l11.5 11.5z" />
    <glyph glyph-name="d" unicode="d" horiz-adv-x="428" 
d="M346 625q43 31 70 18q19 -9 7 -36q-3 -8 -11.5 -18t-23 -24t-26 -24.5t-34.5 -30.5t-35 -30q-3 -4 -11.5 -11.5t-12.5 -12.5q-81 -94 -89 -132q4 2 48.5 48.5t45.5 47.5q9 -7 9 -18t-5 -18l-4 -8q-96 -103 -111 -115q-15 -14 -28 -17v0h-1h-1q-4 0 -6 1q-26 9 -11 63
q-34 -36 -63 -53.5t-42 -6.5q-22 26 2 81t72 101t87 49q20 3 24 -19q82 116 150 165zM69 309q8 -6 38.5 23t54 63t16.5 39q-16 13 -70 -46.5t-39 -78.5zM286 499q6 6 30 25.5t45.5 40t35.5 40.5h-1q-14 -3 -60 -49.5t-50 -56.5z" />
    <glyph glyph-name="e" unicode="e" horiz-adv-x="208" 
d="M52 313q-6 -20 4 -28.5t40 -7.5q7 0 7 -5q1 -1 -1 -2q-49 -35 -78.5 -20t-22.5 53q11 63 76 128t111 46q19 -7 19.5 -32t-15.5 -50q-21 -32 -69.5 -57.5t-70.5 -24.5zM179 443q0 14 -46 -21q-44 -35 -62 -65q24 -1 66 29.5t42 56.5z" />
    <glyph glyph-name="f" unicode="f" horiz-adv-x="371" 
d="M296 537q40 28 64 16q17 -8 7 -32q-3 -7 -11 -16.5t-21 -22t-24.5 -23t-31 -27.5t-31.5 -28q-5 -4 -23 -19.5t-29 -25.5q19 -12 11 -49q3 2 23 22.5t42 43.5l21 22q8 -6 8 -16t-4 -18l-4 -7q-86 -89 -107 -93q-6 -24 -68 -113.5t-79 -90.5h-5h-1q-1 1 -3 1q-6 3 -7 4
q-29 15 -21 58q4 19 52.5 101t93.5 146q79 118 148 167zM62 131q41 57 84 143q-3 2 -8 10q-14 -22 -19 -33q-19 -36 -57 -120zM241 422q6 6 27.5 23.5t41.5 36t33 36.5q0 2 -2 0q-12 -3 -54.5 -45t-45.5 -51z" />
    <glyph glyph-name="g" unicode="g" horiz-adv-x="249" 
d="M218 449q8 1 16 -2.5t12 -7.5l3 -4q-51 -51 -104.5 -144.5t-82.5 -162.5l-28 -68q-2 0 -4.5 1.5t-10 5.5t-11 11t-7.5 18.5t1 26.5q5 28 78 144q-43 -33 -60 -21q-20 24 2.5 75.5t67 94.5t80.5 46q14 1 19.5 -8.5t3.5 -23.5q19 19 25 19zM75 304q7 -6 35 21t50.5 58.5
t15.5 36.5q-10 7 -39 -17t-50.5 -56t-11.5 -43z" />
    <glyph glyph-name="h" unicode="h" 
d="M235 625q43 30 70 19q20 -9 8 -37q-3 -8 -11.5 -18t-23 -24t-26.5 -25t-34 -30t-35 -31q-73 -65 -99 -115q30 42 65.5 73.5t54.5 31.5q6 0 11 -4q17 19 30 19q9 0 17.5 -4t12.5 -8l4 -3q-5 -5 -25 -29t-46 -60.5t-30 -55.5q5 3 47 46.5t47 49.5q10 -7 10 -18t-5 -19
l-5 -8q-83 -91 -110 -114q-19 -16 -28 -17q-1 -1 -3 -1q-4 0 -7 3q-15 10 -2 52q8 32 36 83q2 6 14 25q-99 -77 -148 -163q-22 0 -23.5 29.5t12.5 57.5q28 71 97 163t125 132zM174 499q7 6 30.5 25.5t45.5 40t36 39.5q0 1 -2 1q-13 -3 -60 -49.5t-50 -56.5z" />
    <glyph glyph-name="i" unicode="i" horiz-adv-x="283" 
d="M274 598q16 0 4 -28q-16 -36 -58 -63q-13 -8 -25.5 -8.5t-18.5 3.5l-5 4q13 32 42.5 62t60.5 30zM202 415q9 -8 8.5 -18t-5.5 -18l-5 -8q-24 -26 -46 -47q-20 -21 -57.5 -50.5t-52.5 -29.5q-22 0 -35 18t-6 39q13 43 50 97t77 80q4 3 11 -5t10 -18.5t-2 -19.5
q-10 -13 -30.5 -38t-29.5 -37q-9 -13 -13 -27.5t4 -21.5q4 -2 10.5 1t17.5 12t17.5 15.5t20 19.5t16.5 16z" />
    <glyph glyph-name="j" unicode="j" horiz-adv-x="342" 
d="M190 477q14 3 30.5 -0.5t25.5 -8.5l10 -5q-82 -73 -170 -263q64 71 77 70q6 0 11.5 -3t7.5 -7l3 -3q-67 -46 -148 -174l-2 -6q-1 0 -1 1q-1 -1 -1 -2q-3 1 -11 7q-28 19 -20 60q4 22 64.5 123t111.5 166q-24 6 -59 -32l-43 -43v41l26 26l14 15q15 15 38 26.5t36 11.5z
M310 603q9 0 17 -3.5t11 -7.5l4 -4l-10 -11q-9 -11 -19.5 -23.5t-21 -23.5t-13.5 -13q-11 -5 -20.5 -3.5t-16.5 6.5l-7 4q19 31 40 55.5t36 23.5z" />
    <glyph glyph-name="k" unicode="k" horiz-adv-x="317" 
d="M234 623q42 30 70 18q19 -9 8 -35q-5 -10 -19 -25.5t-27.5 -28t-41.5 -37t-42 -37.5q-2 -2 -4 -3q14 6 21 1q22 -26 -19.5 -86t-83.5 -69q-1 -17 10 -20.5t27 3.5q7 3 17 10t20 15t21 18.5t21 20t19.5 19t15.5 16t11 11.5l5 5q10 -7 10 -18t-5 -19l-5 -7
q-59 -68 -116 -103q-20 -12 -42 -15t-35 5q-16 14 -25 31q-9 -20 -21 -50q-22 0 -23.5 29t12.5 58q28 70 96.5 161.5t124.5 131.5zM87 350q12 -9 48 31.5t25 52.5q-6 4 -26 -15.5t-36 -42t-11 -26.5zM175 498q7 7 29.5 25.5t45 39.5t36.5 40h-2q-13 -3 -59.5 -49.5
t-49.5 -55.5z" />
    <glyph glyph-name="l" unicode="l" horiz-adv-x="317" 
d="M183 474q-107 -96 -159 -236q-22 0 -23.5 29t12.5 58q28 71 97 162.5t125 131.5q42 29 69 18q21 -8 8 -35q-4 -10 -18 -25.5t-27.5 -28t-41 -37t-42.5 -37.5zM285 599q-13 -3 -59.5 -49.5t-50.5 -55.5q5 5 30 25t46.5 40t35.5 40h-2z" />
    <glyph glyph-name="m" unicode="m" horiz-adv-x="401" 
d="M475 417q9 -8 8.5 -18t-5.5 -18l-5 -8q-24 -26 -46 -47q-20 -21 -57.5 -50.5t-52.5 -29.5q-21 0 -31.5 16.5t-9.5 40.5q2 46 22 82q4 6 -1 6q-4 -1 -10 -6q-59 -52 -96 -93q-8 -10 -19.5 -14.5t-21 1.5t-9.5 24q0 39 20 79q4 7 0 8t-11 -5q-80 -73 -114 -134
q-6 -5 -14 -5.5t-14 7.5q-14 11 -3 51q11 33 35 79q19 35 30 51q15 21 42 21q20 -1 19 -17q-48 -64 -63 -86q59 80 116 108q37 15 50.5 2.5t13.5 -32.5t-8 -34q55 57 105 76q8 3 21 6t29 2.5t18 -10.5t-11 -33q-20 -27 -40.5 -70t-8.5 -55q3 -3 9.5 0t17 12t18.5 16.5
t20.5 20l16.5 16.5z" />
    <glyph glyph-name="n" unicode="n" horiz-adv-x="349" 
d="M340 416q9 -8 8.5 -18t-5.5 -18l-5 -8q-5 -5 -21 -21.5t-25 -25.5q-23 -23 -59 -51.5t-51 -28.5q-39 0 -30 56q1 8 8.5 26t14 32.5t8.5 29.5t-7 17q-97 -80 -140 -156q-6 -5 -14 -5.5t-14 7.5q-14 11 -3 51q11 33 35 79q19 35 30 51q15 21 42 21q20 -1 19 -17
q-48 -64 -63 -86q29 39 77.5 78.5t87.5 41.5q10 1 15.5 -7.5t3 -31.5t-16.5 -57q-4 -12 -11.5 -29t-7.5 -19.5t1 -15.5q3 -1 4 -2t6.5 2.5t8.5 5.5t10 8t11 10t11.5 11t11.5 11l10 10l9 9q21 20 41 40z" />
    <glyph glyph-name="o" unicode="o" horiz-adv-x="254" 
d="M244 416q9 -6 9 -17t-5 -19l-4 -8q-4 -4 -13 -13.5t-15 -15.5q-3 -5 -8 -8q-28 -31 -53 -31q-11 0 -19 4q-36 -39 -70.5 -56.5t-55.5 -0.5q-20 23 -4 65t45.5 82t70 64.5t69.5 12.5q39 -16 3 -85q-2 -22 -19 -38q-1 -2 -3 -4q1 -1 5 -1l2.5 2.5t3.5 3t3 3.5l15 15
q34 36 43 45v0zM111 356q6 21 29 39.5t37 18.5q3 0 5 -1q5 20 -3 25q-13 8 -48.5 -21t-61 -67t-13.5 -52q15 -12 59 28q-7 13 -4 30z" />
    <glyph glyph-name="p" unicode="p" horiz-adv-x="321" 
d="M311 462q20 -24 -2.5 -76t-67.5 -95t-81 -46q-16 -1 -21 12.5t-1 32.5q-28 -49 -54 -105.5t-38 -88.5l-12 -32q-2 0 -4.5 1.5t-10 5.5t-11 11t-7.5 18.5t1 27.5q6 32 99.5 178.5t117.5 149.5q8 1 16 -2.5t12 -7.5l4 -4q-3 -2 -7 -6q50 41 67 26zM154 288
q16 -12 66.5 43.5t35.5 73.5q-8 6 -36 -21.5t-50.5 -59t-15.5 -36.5z" />
    <glyph glyph-name="q" unicode="q" horiz-adv-x="254" 
d="M166 252q6 0 11.5 -3.5t7.5 -6.5l2 -3q-66 -46 -146 -174l-1 -1v0h-1q-40 13 -31 63q4 22 73 134q-47 -30 -71 -11q-22 27 5.5 85t78.5 99.5t87 26.5q18 -7 18 -30q15 18 24 20q8 1 16 -2.5t11 -7.5l4 -4q-75 -75 -160 -251q59 66 72 66zM54 295q9 -8 34 9.5t50 45.5
q6 9 17 24.5t13 18.5q13 26 2 33q-13 7 -46 -20t-57 -62.5t-13 -48.5z" />
    <glyph glyph-name="r" unicode="r" horiz-adv-x="269" 
d="M224 378q-6 -7 -12.5 -8.5t-9.5 -0.5t-10 7l-7 5q1 2 5.5 10.5t8.5 14.5q-109 -76 -161 -157q-6 -6 -16.5 -6t-14.5 10q-12 10 1 54q10 34 31.5 76t37.5 67l16 26h10q19 -1 28 -19.5t-2 -31.5q-15 -16 -68 -103q40 51 93 98.5t82 47.5q20 -1 32 -24q0 -4 0.5 -6
t-3.5 -7.5t-6.5 -9t-9 -11.5t-11.5 -14q-11 -13 -14 -18z" />
    <glyph glyph-name="s" unicode="s" horiz-adv-x="219" 
d="M168 478q37 7 48 -18q5 -10 0 -10q-32 -7 -50.5 -30t-23.5 -44.5t-9 -58.5q32 8 50 3.5t26.5 -12.5t4.5 -12q-37 11 -83 -10q0 -1 -3 -20q-3 -21 -18.5 -44t-42.5 -32q-25 -6 -39.5 -1.5t-21.5 13.5l-6 8q0 2 1 5t6 13t13.5 20t25.5 23.5t40 25.5q2 2 6 4q-1 51 9 98
q-11 -9 -17 -17q-4 -4 -23 -24.5t-22 -23.5q-10 0 -13.5 4.5t-1.5 11.5t5 13.5t7 11.5l3 5q8 8 17 17.5t14.5 15.5t6.5 7q49 49 84 55h-2q2 1 3.5 1.5l3 1t2.5 0.5zM84 235q5 6 7 29q-32 -23 -42 -45q21 0 35 16z" />
    <glyph glyph-name="t" unicode="t" horiz-adv-x="421" 
d="M419 571q2 -5 3 -13.5t-9 -26.5t-35 -27q-21 -8 -125 -10q-13 -12 -43 -38q-100 -94 -145 -217q-20 0 -21.5 26.5t10.5 54.5q31 77 110 175q-140 4 -156 23q-6 7 -7 16.5t1 15.5l1 5q80 -13 208 -7q25 26 48 42q40 28 65 16q17 -8 6 -32q-8 -14 -11 -17z" />
    <glyph glyph-name="u" unicode="u" horiz-adv-x="309" 
d="M267 389q8 -6 8 -18t-4 -21l-4 -9q-27 -39 -49 -60.5t-33.5 -26.5t-30.5 -9q-30 -3 -38 25.5t7 43.5q-20 -27 -49.5 -49t-49.5 -22q-13 0 -19 12q-16 26 3 78q8 24 28 55t48 52q19 15 35.5 15.5t22.5 -6.5l7 -7q-65 -56 -83 -91q-15 -30 6 -28q30 4 74 48q14 14 37 40.5
t25 28.5q3 3 8 -4.5t8 -15.5q1 -5 -8 -19q-52 -71 -55 -88q-1 -59 104 74z" />
    <glyph glyph-name="v" unicode="v" horiz-adv-x="282" 
d="M273 417q9 -6 9 -17t-4 -18l-5 -8q-24 -26 -47 -49q-28 -30 -55 -5.5t-8 60.5q1 2 5.5 10t7.5 14q-94 -75 -141 -156q-6 -6 -14.5 -6t-13.5 8q-12 8 -2 50q7 32 24 73t31 65l13 25h10q17 0 27 -16.5t0 -29.5q-7 -9 -41 -68q32 44 71.5 79t66.5 35q5 0 10 -3q18 18 30 18
q8 0 16 -3.5t12 -6.5l4 -4q-27 -27 -67 -84q-14 -21 -7 -27q4 -3 14 7q10 11 23 24.5t21.5 22.5t9.5 10z" />
    <glyph glyph-name="w" unicode="w" horiz-adv-x="440" 
d="M430 406q9 -6 9 -19.5t-5 -23.5l-4 -10q-30 -44 -54.5 -68t-38 -29.5t-33.5 -9.5q-25 -3 -36 14.5t-8 39.5q-39 -44 -86 -54q-2 0 -7.5 -1.5t-8.5 -1.5q-13 0 -21 14q-4 10 -5 16q-8 20 1 41q0 1 1 2q-24 -29 -55 -51t-51 -22q-13 0 -21 14q-17 29 4 87q9 27 31 61.5
t53 57.5q21 16 39.5 16.5t25.5 -7.5l8 -7q-70 -58 -93 -101q-34 -62 -9 -62q18 0 45 27.5t49.5 61t46.5 61t39 27.5q9 0 17 -3.5t12 -7.5l4 -4q-13 -13 -59 -76q-8 -10 -15 -24q-35 -55 -13 -61q2 -1 4 -1q1 0 1 1q14 4 38.5 29t44.5 50l20 24h1q18 22 24.5 30t18 21
t19 17.5t13.5 4.5q9 0 17 -3.5t12 -7.5l4 -4q-3 -3 -24.5 -30t-46 -62.5t-27.5 -49.5q-1 -64 113 77q5 6 6 7z" />
    <glyph glyph-name="x" unicode="x" horiz-adv-x="314" 
d="M312 443l-38 -52q-88 -71 -129 -142q-5 -5 -13 -5.5t-13 7.5q-1 12 -3 39t-3 35q-25 -34 -55 -82q-12 4 -22 19t-2 25q52 63 72 87q-2 12 -3 17q-5 23 -22.5 21t-35.5 -22q-3 -3 -38 -42q-7 8 -7 18t4 16l3 6q18 23 48.5 47t55.5 24t39 -35q53 55 66 55q8 0 14.5 -4
t9.5 -8l2 -4q-40 -28 -83 -78q1 -3 4 -23t5 -30q95 114 134 114q4 0 10 -3z" />
    <glyph glyph-name="y" unicode="y" horiz-adv-x="256" 
d="M224 457q8 1 16 -3t12 -8l4 -4q-54 -48 -109 -144.5t-83 -169.5l-29 -72q-2 0 -4.5 1.5l-10 6t-11.5 11.5t-8 18.5t1 27.5q3 16 37.5 76.5t76.5 125.5q-73 -79 -83 -79q-16 0 -22 16q-16 59 97 172q19 18 34 20.5t20 -4.5l6 -6q-7 -8 -18.5 -21t-35.5 -40.5t-36.5 -47.5
t-5.5 -23q17 11 42.5 35t42.5 43l17 19h1q37 49 49 50z" />
    <glyph glyph-name="z" unicode="z" horiz-adv-x="149" 
d="M134 332q2 0 2.5 -3.5t-2 -10.5t-7.5 -14l-24 -32q-9 4 -20.5 0.5t-14.5 -4.5t-13 -8.5t-17 -11.5q-6 -5 -14 -5.5t-14 7.5q-16 13 -5 53q3 10 15.5 27.5t26 32.5t25.5 28l12 13q9 20 -3 18q-11 -1 -28 -20q-3 -3 -19.5 -20.5t-23.5 -24.5q-7 8 -7 19t3 18l4 6
q21 25 54.5 52t60.5 27q16 0 22 -24t-5 -37q-3 -3 -45.5 -49t-48.5 -57q23 13 39 16.5t47 3.5z" />
    <glyph glyph-name="braceleft" unicode="{" horiz-adv-x="251" 
d="M41 239q-6 0 -13 4q-17 11 -24 31.5t3 49.5q12 29 33 59q16 25 19 33q4 12 1 15l-1 1l-1 2q-9 11 -3 24q5 11 17 11q12 2 21 13q11 17 28 55q20 48 35 70q22 33 63 33q5 0 15 -2q14 -2 16 -14q3 -13 -10 -21q-23 -15 -60 -95q-3 -7 -8 -16.5t-7 -12.5q-20 -36 -46 -45
q10 -27 -10 -64q-4 -9 -18 -31q-36 -61 -33 -75q2 -11 -4 -19q-4 -6 -13 -6z" />
    <glyph glyph-name="bar" unicode="|" horiz-adv-x="124" 
d="M106 239l-2 1h-2q-29 4 -46 51q-13 42 -31.5 152.5t-23.5 176.5q-1 8 5 17q10 10 24 2q33 -17 42 -85q31 -216 51 -292q1 -11 -3 -17q-8 -6 -14 -6z" />
    <glyph glyph-name="braceright" unicode="}" horiz-adv-x="255" 
d="M34 241q-6 0 -16 2q-13 2 -17 14q-2 13 12 21q19 13 57 93q11 22 15 29q19 36 47 46q-9 25 8 61q9 15 17 29q42 64 37 81q-3 13 3 19q5 7 14 7q2 0 10 -2q21 -8 29.5 -28t0.5 -43q-12 -32 -40 -74q-19 -30 -20 -33q-3 -14 0 -18q9 -8 6 -19q-3 -12 -20 -16
q-12 -4 -20 -16q-8 -10 -28 -54q-27 -57 -33 -65q-23 -34 -62 -34z" />
    <glyph glyph-name="asciitilde" unicode="~" horiz-adv-x="314" 
d="M221 321q-24 0 -74 22q-1 1 -4 2.5t-4 2.5q-34 15 -45 15q-17 0 -18 -30v-10h-50v10q-2 41 21 65q19 19 47 19q26 0 73 -23l2 -1q40 -18 53 -18q14 0 15 30v11h50l1 -11q2 -44 -20 -65q-17 -19 -47 -19z" />
    <glyph glyph-name="quoteleft" unicode="&#x2018;" horiz-adv-x="64" 
d="M40 437q-6 6 -18 24t-16 22q-8 17 -4 27q3 8 10 8q6 0 11 -6q25 -29 40 -66q2 -6 0 -11q-1 -2 -7 -5h-3q-7 0 -13 7z" />
    <glyph glyph-name="quoteright" unicode="&#x2019;" horiz-adv-x="64" 
d="M11 424h-3q-6 3 -7 5q-2 5 0 11q15 37 40 66q5 6 11 6q7 0 10 -8q4 -10 -4 -27q-4 -4 -16 -22t-18 -24q-6 -7 -13 -7z" />
    <glyph glyph-name="quotedblleft" unicode="&#x201c;" horiz-adv-x="114" 
d="M103 431q-7 0 -13 7q-6 6 -18 24t-16 22q-8 17 -4 27q3 8 10 8q6 0 11 -6q25 -29 40 -66q2 -6 0 -11q-1 -2 -7 -5h-3zM40 438q-6 6 -18 24t-16 22q-8 17 -4 27q3 8 10 8q6 0 11 -6q25 -29 40 -66q2 -6 0 -11q-1 -2 -7 -5h-3q-7 0 -13 7z" />
    <glyph glyph-name="quotedblright" unicode="&#x201d;" horiz-adv-x="114" 
d="M11 424h-3q-6 3 -7 5q-2 5 0 11q15 37 40 66q5 6 11 6q7 0 10 -8q4 -10 -4 -27q-4 -4 -16 -22t-18 -24q-6 -7 -13 -7zM61 424h-3q-6 3 -7 5q-2 5 0 11q15 37 40 66q5 6 11 6q7 0 10 -8q4 -10 -4 -27q-4 -4 -16 -22t-18 -24q-6 -7 -13 -7z" />
    <glyph glyph-name="bullet" unicode="&#x2022;" horiz-adv-x="192" 
d="M126 477q17 -3 35 -29q12 -30 0 -68q-10 -23 -32.5 -40t-43.5 -17q-3 0 -10 0.5t-12 0.5q-26 15 -31 36q-15 33 1 66q12 26 33 40.5t43 14.5q13 0 17 -4z" />
    </font>
</defs>
</svg>
